:FULLY-SPECIFIED
:FORCE-ALL-JOINTS-BE-3DOF
:DEGREES
781
root 2.55341 17.9367 17.5911 6.39292 -15.4023 273.879
lfemur -43.4594 -2.53053 -0.112484
ltibia 48.4667 0 0
lfoot -7.4521 -1.8806 0
ltoes 19.3844 0 0
rfemur -7.68018 2.30594 18.1333
rtibia 32.9765 0 0
rfoot -15.8186 -11.7232 0
rtoes -11.0315 0 0
lowerback 3.0441 3.95163 3.91927
upperback -0.272223 5.30599 -0.954615
thorax -1.44589 2.65293 -3.22389
lowerneck -6.19213 -2.53874 1.6646
upperneck -1.81742 -3.47848 1.98757
head 0.477255 -1.73576 0.275207
lclavicle -7.28461e-14 -7.99175e-15 0
lhumerus -38.2271 -8.3979 70.5143
lradius 56.437 0 0
lwrist 23.9103 0 0
lhand -18.3154 1.28455 0
lfingers 7.12502 0 0
lthumb 8.02871 31.7218 0
rclavicle -7.28461e-14 -7.99175e-15 0
rhumerus -28.643 34.0181 -91.5827
rradius 71.8732 0 0
rwrist 0.81731 0 0
rhand -20.727 -32.3147 0
rfingers 7.12502 0 0
rthumb 5.63796 -782.134 0
782
root 2.51314 17.8816 17.7481 6.30571 -14.1821 277.646
lfemur -43.4562 -2.39234 -0.382705
ltibia 47.7804 0 0
lfoot -7.67613 -1.80282 0
ltoes 19.1318 0 0
rfemur -7.50294 2.30438 18.3464
rtibia 32.7226 0 0
rfoot -16.2489 -11.5925 0
rtoes -11.5648 0 0
lowerback 2.99851 4.01355 3.9815
upperback -0.254897 5.39227 -0.941694
thorax -1.39491 2.69567 -3.2485
lowerneck -6.18733 -2.514 1.70326
upperneck -1.81472 -3.44798 1.95766
head 0.47463 -1.72029 0.259633
lclavicle -7.36432e-14 -8.05962e-15 0
lhumerus -38.9647 -8.30947 71.5129
lradius 56.492 0 0
lwrist 23.8327 0 0
lhand -18.1964 1.36699 0
lfingers 7.12502 0 0
lthumb 8.14297 31.7933 0
rclavicle -7.36432e-14 -8.05962e-15 0
rhumerus -28.7673 34.6036 -92.6626
rradius 71.6082 0 0
rwrist 0.844708 0 0
rhand -20.5235 -32.1455 0
rfingers 7.12502 0 0
rthumb 5.83443 -781.963 0
783
root 2.47357 17.8271 17.9044 6.21908 -12.9765 281.365
lfemur -43.4505 -2.25415 -0.649859
ltibia 47.1042 0 0
lfoot -7.89728 -1.72803 0
ltoes 18.8806 0 0
rfemur -7.32974 2.30149 18.5534
rtibia 32.4747 0 0
rfoot -16.6698 -11.4648 0
rtoes -12.0855 0 0
lowerback 2.9535 4.07403 4.04196
upperback -0.237795 5.47657 -0.92924
thorax -1.34466 2.73742 -3.27256
lowerneck -6.18269 -2.49014 1.74089
upperneck -1.81134 -3.41861 1.92862
head 0.472342 -1.70536 0.244462
lclavicle -7.44205e-14 -8.12354e-15 0
lhumerus -39.6926 -8.22567 72.5012
lradius 56.5465 0 0
lwrist 23.755 0 0
lhand -18.0734 1.44993 0
lfingers 7.12502 0 0
lthumb 8.26095 31.864 0
rclavicle -7.44205e-14 -8.12354e-15 0
rhumerus -28.8924 35.1794 -93.7281
rradius 71.3526 0 0
rwrist 0.870715 0 0
rhand -20.3212 -31.9764 0
rfingers 7.12502 0 0
rthumb 6.02977 -781.791 0
784
root 2.43472 17.7733 18.0601 6.13307 -11.7864 285.036
lfemur -43.4422 -2.11604 -0.913739
ltibia 46.4386 0 0
lfoot -8.11537 -1.65639 0
ltoes 18.6312 0 0
rfemur -7.16065 2.29727 18.7541
rtibia 32.2331 0 0
rfoot -17.0811 -11.3404 0
rtoes -12.593 0 0
lowerback 2.9091 4.13303 4.10061
upperback -0.220932 5.55881 -0.917272
thorax -1.29519 2.77814 -3.29604
lowerneck -6.1782 -2.46717 1.77745
upperneck -1.80728 -3.39041 1.90046
head 0.470392 -1.691 0.229707
lclavicle -7.51771e-14 -8.18338e-15 0
lhumerus -40.4105 -8.14658 73.4785
lradius 56.6004 0 0
lwrist 23.6771 0 0
lhand -17.9464 1.53334 0
lfingers 7.12502 0 0
lthumb 8.3827 31.9341 0
rclavicle -7.51771e-14 -8.18338e-15 0
rhumerus -29.0183 35.745 -94.7784
rradius 71.1066 0 0
rwrist 0.895392 0 0
rhand -20.1201 -31.8074 0
rfingers 7.12502 0 0
rthumb 6.2239 -781.62 0
785
root 2.39663 17.7202 18.2149 6.04775 -10.6128 288.656
lfemur -43.4314 -1.97811 -1.17414
ltibia 45.7842 0 0
lfoot -8.33021 -1.58803 0
ltoes 18.3835 0 0
rfemur -6.99576 2.29172 18.9481
rtibia 31.9978 0 0
rfoot -17.4823 -11.2194 0
rtoes -13.087 0 0
lowerback 2.86535 4.19049 4.15739
upperback -0.20432 5.63892 -0.905814
thorax -1.24653 2.81782 -3.31894
lowerneck -6.17388 -2.44512 1.81292
upperneck -1.80255 -3.36339 1.87323
head 0.468778 -1.67722 0.215385
lclavicle -7.59123e-14 -8.23899e-15 0
lhumerus -41.1179 -8.07232 74.4441
lradius 56.6538 0 0
lwrist 23.5991 0 0
lhand -17.8153 1.61723 0
lfingers 7.12502 0 0
lthumb 8.50828 32.0033 0
rclavicle -7.59123e-14 -8.23899e-15 0
rhumerus -29.1451 36.3001 -95.8127
rradius 70.8704 0 0
rwrist 0.918798 0 0
rhand -19.9203 -31.6387 0
rfingers 7.12502 0 0
rthumb 6.41674 -781.449 0
786
root 2.35932 17.6679 18.3691 5.96318 -9.45653 292.224
lfemur -43.418 -1.84046 -1.43084
ltibia 45.1414 0 0
lfoot -8.54159 -1.52312 0
ltoes 18.1378 0 0
rfemur -6.83517 2.28484 19.1353
rtibia 31.7693 0 0
rfoot -17.8731 -11.1022 0
rtoes -13.5668 0 0
lowerback 2.82225 4.24637 4.21225
upperback -0.187974 5.71684 -0.894884
thorax -1.19872 2.85641 -3.34125
lowerneck -6.16973 -2.42399 1.84725
upperneck -1.79717 -3.33757 1.84694
head 0.467501 -1.66402 0.201509
lclavicle -7.66252e-14 -8.29024e-15 0
lhumerus -41.8142 -8.00298 75.3973
lradius 56.7065 0 0
lwrist 23.521 0 0
lhand -17.6801 1.70157 0
lfingers 7.12502 0 0
lthumb 8.63774 32.0717 0
rclavicle -7.66252e-14 -8.29024e-15 0
rhumerus -29.2729 36.8442 -96.8305
rradius 70.6443 0 0
rwrist 0.94099 0 0
rhand -19.722 -31.4703 0
rfingers 7.12502 0 0
rthumb 6.6082 -781.278 0
